<svg xmlns="http://www.w3.org/2000/svg" width="460" height="380" viewBox="0 0 460 380" role="img" aria-label="Doorsnede van een appel">
  <defs>
    <radialGradient id="flesh" cx="0.5" cy="0.45" r="0.65">
      <stop offset="0" stop-color="#FBF6E4"/><stop offset="1" stop-color="#F2E6C2"/>
    </radialGradient>
    <linearGradient id="skin" x1="0" y1="0" x2="0" y2="1">
      <stop offset="0" stop-color="#E2574C"/><stop offset="1" stop-color="#C0392B"/>
    </linearGradient>
  </defs>

  <!-- steeltje -->
  <path d="M230 70 C 232 44, 240 30, 252 22" fill="none" stroke="#7A5230" stroke-width="9" stroke-linecap="round"/>

  <!-- appellichaam: rode schil -->
  <path d="M230 74 C 150 50, 60 96, 56 196 C 52 300, 150 364, 230 350 C 310 364, 408 300, 404 196 C 400 96, 310 50, 230 74 Z" fill="url(#skin)"/>
  <!-- vruchtvlees -->
  <path d="M230 96 C 162 78, 84 116, 80 198 C 76 288, 162 340, 230 328 C 298 340, 384 288, 380 198 C 376 116, 298 78, 230 96 Z" fill="url(#flesh)"/>

  <!-- klokhuis (kern) -->
  <path d="M230 150 C 198 158, 184 196, 196 244 C 206 282, 230 296, 230 296 C 230 296, 254 282, 264 244 C 276 196, 262 158, 230 150 Z" fill="#EFE2B6" stroke="#D8C48A" stroke-width="2.5"/>

  <!-- zaden (pitten) -->
  <path d="M212 214 C 204 206, 204 226, 212 236 C 222 230, 222 214, 212 214 Z" fill="#6B4423"/>
  <path d="M248 214 C 256 206, 256 226, 248 236 C 238 230, 238 214, 248 214 Z" fill="#6B4423"/>
  <path d="M230 250 C 222 244, 222 264, 230 272 C 240 264, 240 244, 230 250 Z" fill="#6B4423"/>

  <!-- kroontje (onderaan) -->
  <path d="M230 350 l -10 18 l 10 -6 l 10 6 z" fill="#5A4A2E"/>
  <circle cx="230" cy="348" r="5" fill="#8A6A3A"/>
</svg>
